# Blender v2.62 (sub 0) OBJ File: 'face.blend'
# www.blender.org
mtllib face_brow.mtl
o eyebrow.001_Cube.001
v -0.750000 -0.250000 0.100000
v -0.750000 -0.250000 -0.100000
v 0.750000 -0.250000 -0.100000
v 0.750000 -0.250000 0.100000
v -0.750000 0.250000 0.100000
v -0.750000 0.250000 -0.100000
v 0.750000 0.250000 -0.100000
v 0.750000 0.250000 0.100000
vt 0.519531 0.871094
vt 0.519531 0.968750
vt 0.933594 0.968750
vt 0.933594 0.871094
vt 0.019531 0.832031
vt 0.472656 0.832031
vt 0.472656 0.679688
vt 0.019531 0.679688
vt 0.519531 0.947266
vt 0.574219 0.947266
vt 0.574219 0.552734
vt 0.519531 0.552734
vn -1.000000 -0.000000 0.000000
vn 0.000000 0.000000 -1.000000
vn 1.000000 -0.000000 0.000000
vn 0.000000 0.000000 1.000000
vn -0.000000 -1.000000 0.000000
vn -0.000000 1.000000 0.000000
usemtl _wooden.png
s off
f 2/1/1 1/2/1 5/3/1
f 2/1/1 5/3/1 6/4/1
f 6/5/2 7/6/2 3/7/2
f 6/5/2 3/7/2 2/8/2
f 7/4/3 8/3/3 4/2/3
f 7/4/3 4/2/3 3/1/3
f 1/8/4 4/7/4 8/6/4
f 1/8/4 8/6/4 5/5/4
f 1/9/5 2/10/5 3/11/5
f 1/9/5 3/11/5 4/12/5
f 8/12/6 7/11/6 6/10/6
f 8/12/6 6/10/6 5/9/6
