# Blender v2.62 (sub 0) OBJ File: 'face.blend'
# www.blender.org
mtllib face_teeth_bot.mtl
o MouthBot.001_Circle.001
v -1.000000 -0.812029 0.000000
v -0.980785 -0.812029 0.195091
v -0.923879 -0.812029 0.382684
v -0.831470 -0.812029 0.555570
v -0.707107 -0.812029 0.707107
v -0.555570 -0.812029 0.831470
v -0.382683 -0.812029 0.923880
v -0.195090 -0.812029 0.980786
v 0.000000 -0.812029 1.000000
v 0.195091 -0.812029 0.980785
v 0.382684 -0.812029 0.923880
v 0.555571 -0.812029 0.831470
v 0.707107 -0.812029 0.707107
v 0.831470 -0.812029 0.555570
v 0.923880 -0.812029 0.382683
v 0.980786 -0.812029 0.195090
v 1.000000 -0.812029 -0.000001
v -0.800000 -0.812029 0.000000
v -0.784628 -0.812029 0.156072
v -0.739104 -0.812029 0.306147
v -0.665176 -0.812029 0.444456
v -0.565685 -0.812029 0.565686
v -0.444456 -0.812029 0.665176
v -0.306147 -0.812029 0.739104
v -0.156072 -0.812029 0.784628
v 0.000000 -0.812029 0.800000
v 0.156073 -0.812029 0.784628
v 0.306147 -0.812029 0.739104
v 0.444457 -0.812029 0.665176
v 0.565686 -0.812029 0.565685
v 0.665176 -0.812029 0.444456
v 0.739104 -0.812029 0.306146
v 0.784628 -0.812029 0.156072
v 0.800000 -0.812029 -0.000001
v 0.000000 -0.541385 1.000000
v 0.195091 -0.541385 0.980785
v 0.831470 -0.541385 0.555570
v 0.923880 -0.541385 0.382683
v -1.000000 -0.541385 0.000000
v -0.980785 -0.541385 0.195090
v -0.555570 -0.541385 0.831470
v -0.382683 -0.541385 0.923880
v 0.382684 -0.541385 0.923880
v 0.555571 -0.541385 0.831470
v 0.980786 -0.541385 0.195090
v 1.000000 -0.541385 -0.000001
v -0.923879 -0.541385 0.382684
v -0.831470 -0.541385 0.555570
v -0.195090 -0.541385 0.980786
v 0.707107 -0.541385 0.707107
v -0.707107 -0.541385 0.707107
v 0.000000 0.000081 0.893354
v 0.174285 0.000081 0.876188
v 0.742797 0.000081 0.496320
v 0.825352 0.000081 0.341871
v -0.893354 0.000081 0.000000
v -0.876188 0.000081 0.174285
v -0.496321 0.000081 0.742797
v -0.341871 0.000081 0.825351
v 0.341872 0.000081 0.825351
v 0.496321 0.000081 0.742796
v 0.876188 0.000081 0.174284
v 0.893354 0.000081 -0.000001
v -0.825351 0.000081 0.341872
v -0.742796 0.000081 0.496321
v -0.174284 0.000081 0.876188
v 0.631697 0.000081 0.631696
v -0.631696 0.000081 0.631697
v -0.742796 -0.541388 0.496321
v 0.000000 -0.541388 0.893354
v 0.742797 -0.541388 0.496320
v 0.174285 -0.541388 0.876188
v 0.825352 -0.541388 0.341871
v -0.893354 -0.541388 0.000000
v -0.496321 -0.541388 0.742797
v 0.893354 -0.541388 -0.000001
v 0.341872 -0.541388 0.825351
v 0.876188 -0.541388 0.174284
v -0.876188 -0.541388 0.174285
v -0.341871 -0.541388 0.825351
v 0.496321 -0.541388 0.742796
v -0.631696 -0.541388 0.631697
v 0.631697 -0.541388 0.631696
v -0.174284 -0.541388 0.876188
v -0.825351 -0.541388 0.341872
v 0.000000 0.000081 0.893354
v 0.174285 0.000081 0.876188
v 0.742797 0.000081 0.496320
v 0.825352 0.000081 0.341871
v -0.893354 0.000081 0.000000
v -0.876188 0.000081 0.174285
v -0.496321 0.000081 0.742797
v -0.341871 0.000081 0.825352
v 0.341872 0.000081 0.825351
v 0.496321 0.000081 0.742796
v 0.876188 0.000081 0.174284
v 0.893354 0.000081 -0.000001
v -0.825351 0.000081 0.341872
v -0.742796 0.000081 0.496321
v -0.174284 0.000081 0.876188
v 0.631697 0.000081 0.631696
v -0.631696 0.000081 0.631697
v -0.742796 -0.541388 0.496321
v 0.000000 -0.541388 0.893354
v 0.742797 -0.541388 0.496320
v 0.174285 -0.541388 0.876188
v 0.825352 -0.541388 0.341871
v -0.893354 -0.541388 0.000000
v -0.496321 -0.541388 0.742797
v 0.893354 -0.541388 -0.000001
v 0.341872 -0.541388 0.825351
v 0.876188 -0.541388 0.174284
v -0.876188 -0.541388 0.174285
v -0.341871 -0.541388 0.825352
v 0.496321 -0.541388 0.742796
v -0.631696 -0.541388 0.631697
v 0.631697 -0.541388 0.631696
v -0.174284 -0.541388 0.876188
v -0.825351 -0.541388 0.341872
v 0.893354 -0.541388 -0.000001
v 0.893354 0.000081 -0.000001
v 0.893354 -0.541388 -0.000001
v 0.893354 0.000081 -0.000001
v 1.000000 -0.541385 -0.000001
v 0.800000 -0.812029 -0.000001
v 1.000000 -0.812029 -0.000001
v -0.893354 -0.541388 0.000000
v -0.893354 0.000081 0.000000
v -0.893354 -0.541388 0.000000
v -0.893354 0.000081 0.000000
v -1.000000 -0.541385 0.000000
v -0.800000 -0.812029 0.000000
v -1.000000 -0.812029 0.000000
vt 0.880859 0.433594
vt 0.841797 0.443359
vt 0.773438 0.435547
vt 0.802734 0.429688
vt 0.560547 0.466797
vt 0.500000 0.466797
vt 0.500000 0.408203
vt 0.560547 0.408203
vt 0.865234 0.466797
vt 0.804688 0.466797
vt 0.804688 0.408203
vt 0.865234 0.408203
vt 0.011719 0.408203
vt 0.074219 0.408203
vt 0.074219 0.466797
vt 0.011719 0.466797
vt 0.378906 0.466797
vt 0.316406 0.466797
vt 0.316406 0.408203
vt 0.378906 0.408203
vt 0.683594 0.466797
vt 0.621094 0.466797
vt 0.621094 0.408203
vt 0.683594 0.408203
vt 0.988281 0.466797
vt 0.925781 0.466797
vt 0.925781 0.408203
vt 0.988281 0.408203
vt 0.195312 0.466797
vt 0.134766 0.466797
vt 0.134766 0.408203
vt 0.195312 0.408203
vt 0.439453 0.466797
vt 0.439453 0.408203
vt 0.744141 0.466797
vt 0.744141 0.408203
vt 0.255859 0.466797
vt 0.255859 0.408203
vt 0.578125 0.462891
vt 0.498047 0.464844
vt 0.498047 0.455078
vt 0.562500 0.453125
vt 0.205078 0.449219
vt 0.154297 0.443359
vt 0.222656 0.435547
vt 0.263672 0.443359
vt 0.904297 0.423828
vt 0.822266 0.421875
vt 0.656250 0.460938
vt 0.625000 0.451172
vt 0.269531 0.457031
vt 0.314453 0.447266
vt 0.912109 0.414062
vt 0.830078 0.414062
vt 0.726562 0.457031
vt 0.681641 0.447266
vt 0.339844 0.460938
vt 0.371094 0.451172
vt 0.091797 0.423828
vt 0.083984 0.414062
vt 0.166016 0.414062
vt 0.173828 0.421875
vt 0.791016 0.449219
vt 0.732422 0.443359
vt 0.417969 0.462891
vt 0.433594 0.453125
vt 0.117188 0.433594
vt 0.193359 0.429688
vt 0.007812 0.666016
vt 0.062500 0.404297
vt 0.085938 0.404297
vt 0.037109 0.666016
vt 0.591797 0.666016
vt 0.582031 0.404297
vt 0.664062 0.404297
vt 0.683594 0.666016
vt 0.402344 0.666016
vt 0.412109 0.404297
vt 0.494141 0.404297
vt 0.494141 0.666016
vt 0.304688 0.666016
vt 0.330078 0.404297
vt 0.085938 0.666016
vt 0.128906 0.404297
vt 0.177734 0.404297
vt 0.144531 0.666016
vt 0.246094 0.404297
vt 0.222656 0.666016
vt 0.003906 0.666016
vt 0.056641 0.404297
vt 0.742188 0.404297
vt 0.771484 0.666016
vt 0.806641 0.404297
vt 0.845703 0.666016
vt 0.865234 0.404297
vt 0.908203 0.666016
vt 0.904297 0.404297
vt 0.951172 0.666016
vt 0.927734 0.404297
vt 0.980469 0.666016
vt 0.937500 0.404297
vt 0.990234 0.666016
vt 0.560547 0.414062
vt 0.500000 0.414062
vt 0.500000 0.441406
vt 0.560547 0.441406
vt 0.865234 0.414062
vt 0.804688 0.414062
vt 0.804688 0.441406
vt 0.865234 0.441406
vt 0.074219 0.414062
vt 0.013672 0.414062
vt 0.013672 0.441406
vt 0.074219 0.441406
vt 0.378906 0.414062
vt 0.316406 0.414062
vt 0.316406 0.441406
vt 0.378906 0.441406
vt 0.683594 0.414062
vt 0.621094 0.414062
vt 0.621094 0.441406
vt 0.683594 0.441406
vt 0.986328 0.414062
vt 0.925781 0.414062
vt 0.925781 0.441406
vt 0.986328 0.441406
vt 0.195312 0.414062
vt 0.134766 0.414062
vt 0.134766 0.441406
vt 0.195312 0.441406
vt 0.439453 0.414062
vt 0.439453 0.441406
vt 0.744141 0.414062
vt 0.744141 0.441406
vt 0.255859 0.414062
vt 0.255859 0.441406
vt 0.560547 0.660156
vt 0.500000 0.660156
vt 0.500000 0.474609
vt 0.560547 0.474609
vt 0.439453 0.660156
vt 0.378906 0.660156
vt 0.378906 0.474609
vt 0.439453 0.474609
vt 0.318359 0.660156
vt 0.255859 0.660156
vt 0.255859 0.474609
vt 0.318359 0.474609
vt 0.134766 0.660156
vt 0.074219 0.660156
vt 0.074219 0.474609
vt 0.134766 0.474609
vt 0.986328 0.660156
vt 0.925781 0.660156
vt 0.925781 0.474609
vt 0.986328 0.474609
vt 0.804688 0.660156
vt 0.744141 0.660156
vt 0.744141 0.474609
vt 0.804688 0.474609
vt 0.195312 0.660156
vt 0.195312 0.474609
vt 0.013672 0.660156
vt 0.013672 0.474609
vt 0.621094 0.660156
vt 0.621094 0.474609
vt 0.681641 0.660156
vt 0.681641 0.474609
vt 0.865234 0.660156
vt 0.865234 0.474609
vt 0.160156 0.554688
vt 0.193359 0.460938
vt 0.160156 0.744141
vt 0.781250 0.554688
vt 0.781250 0.744141
vt 0.748047 0.460938
vt 0.818359 0.460938
vt 0.818359 0.554688
vt 0.123047 0.554688
vt 0.123047 0.460938
vn 0.672475 -0.685690 0.278542
vn 0.605213 -0.685690 0.404370
vn -0.602191 -0.689505 -0.402356
vn -0.669118 -0.689505 -0.277139
vn 0.141972 0.685690 0.713889
vn 0.000000 0.685690 0.727866
vn 0.000000 -0.685690 0.727866
vn 0.142003 -0.685690 0.713889
vn 0.672445 0.685690 0.278542
vn 0.605182 0.685690 0.404370
vn -0.726005 -0.683920 0.071505
vn -0.713889 -0.685690 0.142003
vn -0.713889 0.685690 0.141972
vn -0.726005 0.683920 0.071505
vn -0.278542 0.685690 0.672445
vn -0.404370 0.685690 0.605182
vn -0.404370 -0.685690 0.605213
vn -0.278542 -0.685690 0.672475
vn 0.404370 0.685690 0.605182
vn 0.278542 0.685690 0.672445
vn 0.278542 -0.685690 0.672475
vn 0.404370 -0.685690 0.605213
vn 0.726005 0.683920 0.071505
vn 0.713889 0.685690 0.141972
vn 0.713889 -0.685690 0.142003
vn 0.726005 -0.683920 0.071505
vn -0.605182 0.685690 0.404370
vn -0.672445 0.685690 0.278542
vn -0.672475 -0.685690 0.278542
vn -0.605213 -0.685690 0.404370
vn -0.141972 0.685690 0.713889
vn -0.142003 -0.685690 0.713889
vn 0.514664 0.685690 0.514664
vn 0.514695 -0.685690 0.514664
vn -0.514664 0.685690 0.514664
vn -0.514664 -0.685690 0.514664
vn 0.000000 -0.689505 -0.724235
vn -0.141270 -0.689505 -0.710318
vn 0.602191 -0.689505 -0.402356
vn 0.512101 -0.689505 -0.512101
vn -0.710318 -0.689505 -0.141270
vn -0.277139 -0.689505 -0.669118
vn 0.402356 -0.689505 -0.602191
vn -0.722404 -0.687765 -0.071139
vn -0.402356 -0.689505 -0.602191
vn 0.277139 -0.689505 -0.669118
vn 0.722404 -0.687765 -0.071139
vn 0.710318 -0.689505 -0.141270
vn -0.512101 -0.689505 -0.512101
vn 0.141270 -0.689505 -0.710318
vn 0.669118 -0.689505 -0.277139
vn -0.974364 0.114170 -0.193793
vn -0.917814 0.114170 -0.380169
vn 0.193793 0.114170 -0.974364
vn 0.380169 0.114170 -0.917814
vn -0.193793 0.114170 -0.974364
vn 0.000000 0.114170 -0.993439
vn -0.380169 0.114170 -0.917814
vn -0.826014 0.114170 -0.551927
vn -0.702475 0.114170 -0.702475
vn -0.551927 0.114170 -0.826014
vn -0.988708 0.113651 -0.097354
vn 0.551927 0.114170 -0.826014
vn 0.702475 0.114170 -0.702475
vn 0.826014 0.114170 -0.551927
vn 0.917814 0.114170 -0.380169
vn 0.974364 0.114170 -0.193793
vn 0.988708 0.113651 -0.097354
vn 0.000000 1.000000 0.000000
vn 0.000000 0.999969 0.000000
vn 0.195074 0.000000 0.980773
vn 0.000000 0.000000 1.000000
vn -0.195074 0.000000 0.980773
vn -0.382672 0.000000 0.923856
vn -0.555559 0.000000 0.831446
vn -0.707083 0.000000 0.707083
vn -0.923856 0.000000 0.382672
vn -0.980773 0.000000 0.195074
vn 0.995178 0.000000 0.097995
vn 0.980773 0.000000 0.195074
vn 0.831446 0.000000 0.555559
vn 0.707083 0.000000 0.707083
vn -0.831446 0.000000 0.555559
vn -0.995178 0.000000 0.097995
vn 0.382672 0.000000 0.923856
vn 0.555559 0.000000 0.831446
vn 0.923856 0.000000 0.382672
vn 0.000000 0.000000 -1.000000
usemtl _stache_teeth.png
s 1
f 15/1/1 14/2/2 31/3/3
f 15/1/1 31/3/3 32/4/4
f 36/5/5 35/6/6 9/7/7
f 36/5/5 9/7/7 10/8/8
f 38/9/9 37/10/10 14/11/2
f 38/9/9 14/11/2 15/12/1
f 1/13/11 2/14/12 40/15/13
f 1/13/11 40/15/13 39/16/14
f 42/17/15 41/18/16 6/19/17
f 42/17/15 6/19/17 7/20/18
f 44/21/19 43/22/20 11/23/21
f 44/21/19 11/23/21 12/24/22
f 46/25/23 45/26/24 16/27/25
f 46/25/23 16/27/25 17/28/26
f 48/29/27 47/30/28 3/31/29
f 48/29/27 3/31/29 4/32/30
f 35/6/6 49/33/31 8/34/32
f 35/6/6 8/34/32 9/7/7
f 37/10/10 50/35/33 13/36/34
f 37/10/10 13/36/34 14/11/2
f 41/18/16 51/37/35 5/38/36
f 41/18/16 5/38/36 6/19/17
f 43/22/20 36/5/5 10/8/8
f 43/22/20 10/8/8 11/23/21
f 45/26/24 38/9/9 15/12/1
f 45/26/24 15/12/1 16/27/25
f 47/30/28 40/15/13 2/14/12
f 47/30/28 2/14/12 3/31/29
f 49/33/31 42/17/15 7/20/18
f 49/33/31 7/20/18 8/34/32
f 50/35/33 44/21/19 12/24/22
f 50/35/33 12/24/22 13/36/34
f 51/37/35 48/29/27 4/32/30
f 51/37/35 4/32/30 5/38/36
f 10/39/8 9/40/7 26/41/37
f 10/39/8 26/41/37 27/42/38
f 5/43/36 4/44/30 21/45/39
f 5/43/36 21/45/39 22/46/40
f 16/47/25 15/1/1 32/4/4
f 16/47/25 32/4/4 33/48/41
f 11/49/21 10/39/8 27/42/38
f 11/49/21 27/42/38 28/50/42
f 6/51/17 5/43/36 22/46/40
f 6/51/17 22/46/40 23/52/43
f 17/53/26 16/47/25 33/48/41
f 17/53/26 33/48/41 34/54/44
f 12/55/22 11/49/21 28/50/42
f 12/55/22 28/50/42 29/56/45
f 7/57/18 6/51/17 23/52/43
f 7/57/18 23/52/43 24/58/46
f 2/59/12 1/60/11 18/61/47
f 2/59/12 18/61/47 19/62/48
f 13/63/34 12/55/22 29/56/45
f 13/63/34 29/56/45 30/64/49
f 8/65/32 7/57/18 24/58/46
f 8/65/32 24/58/46 25/66/50
f 3/67/29 2/59/12 19/62/48
f 3/67/29 19/62/48 20/68/51
f 14/2/2 13/63/34 30/64/49
f 14/2/2 30/64/49 31/3/3
f 9/40/7 8/65/32 25/66/50
f 9/40/7 25/66/50 26/41/37
f 4/44/30 3/67/29 20/68/51
f 4/44/30 20/68/51 21/45/39
f 62/69/52 33/70/41 32/71/4
f 62/69/52 32/71/4 55/72/53
f 66/73/54 25/74/50 24/75/46
f 66/73/54 24/75/46 59/76/55
f 53/77/56 27/78/38 26/79/37
f 53/77/56 26/79/37 52/80/57
f 60/81/58 28/82/42 27/78/38
f 60/81/58 27/78/38 53/77/56
f 54/83/59 31/84/3 30/85/49
f 54/83/59 30/85/49 67/86/60
f 67/86/60 30/85/49 29/87/45
f 67/86/60 29/87/45 61/88/61
f 61/88/61 29/87/45 28/82/42
f 61/88/61 28/82/42 60/81/58
f 55/72/53 32/71/4 31/84/3
f 55/72/53 31/84/3 54/83/59
f 63/89/62 34/90/44 33/70/41
f 63/89/62 33/70/41 62/69/52
f 52/80/57 26/79/37 25/74/50
f 52/80/57 25/74/50 66/73/54
f 59/76/55 24/75/46 23/91/43
f 59/76/55 23/91/43 58/92/63
f 58/92/63 23/91/43 22/93/40
f 58/92/63 22/93/40 68/94/64
f 68/94/64 22/93/40 21/95/39
f 68/94/64 21/95/39 65/96/65
f 65/96/65 21/95/39 20/97/51
f 65/96/65 20/97/51 64/98/66
f 64/98/66 20/97/51 19/99/48
f 64/98/66 19/99/48 57/100/67
f 57/100/67 19/99/48 18/101/47
f 57/100/67 18/101/47 56/102/68
f 72/103/69 70/104/69 35/105/6
f 72/103/69 35/105/6 36/106/5
f 73/107/69 71/108/69 37/109/10
f 73/107/69 37/109/10 38/110/9
f 79/111/70 74/112/69 39/113/14
f 79/111/70 39/113/14 40/114/13
f 80/115/69 75/116/69 41/117/16
f 80/115/69 41/117/16 42/118/15
f 81/119/69 77/120/69 43/121/20
f 81/119/69 43/121/20 44/122/19
f 76/123/70 78/124/69 45/125/24
f 76/123/70 45/125/24 46/126/23
f 69/127/69 85/128/70 47/129/28
f 69/127/69 47/129/28 48/130/27
f 70/104/69 84/131/69 49/132/31
f 70/104/69 49/132/31 35/105/6
f 71/108/69 83/133/70 50/134/33
f 71/108/69 50/134/33 37/109/10
f 75/116/69 82/135/69 51/136/35
f 75/116/69 51/136/35 41/117/16
f 77/120/69 72/103/69 36/106/5
f 77/120/69 36/106/5 43/121/20
f 78/124/69 73/107/69 38/110/9
f 78/124/69 38/110/9 45/125/24
f 85/128/70 79/111/70 40/114/13
f 85/128/70 40/114/13 47/129/28
f 84/131/69 80/115/69 42/118/15
f 84/131/69 42/118/15 49/132/31
f 83/133/70 81/119/69 44/122/19
f 83/133/70 44/122/19 50/134/33
f 82/135/69 69/127/69 48/130/27
f 82/135/69 48/130/27 51/136/35
f 87/137/71 86/138/72 104/139/72
f 87/137/71 104/139/72 106/140/71
f 100/141/73 93/142/74 114/143/74
f 100/141/73 114/143/74 118/144/73
f 92/145/75 102/146/76 116/147/76
f 92/145/75 116/147/76 109/148/75
f 98/149/77 91/150/78 113/151/78
f 98/149/77 113/151/78 119/152/77
f 97/153/79 96/154/80 112/155/80
f 97/153/79 112/155/80 110/156/79
f 88/157/81 101/158/82 117/159/82
f 88/157/81 117/159/82 105/160/81
f 93/142/74 92/145/75 109/148/75
f 93/142/74 109/148/75 114/143/74
f 102/146/76 99/161/83 103/162/83
f 102/146/76 103/162/83 116/147/76
f 91/150/78 90/163/84 108/164/84
f 91/150/78 108/164/84 113/151/78
f 94/165/85 87/137/71 106/140/71
f 94/165/85 106/140/71 111/166/85
f 86/138/72 100/141/73 118/144/73
f 86/138/72 118/144/73 104/139/72
f 101/158/82 95/167/86 115/168/86
f 101/158/82 115/168/86 117/159/82
f 89/169/87 88/157/81 105/160/81
f 89/169/87 105/160/81 107/170/87
f 96/154/80 89/169/87 107/170/87
f 96/154/80 107/170/87 112/155/80
f 99/161/83 98/149/77 119/152/77
f 99/161/83 119/152/77 103/162/83
f 95/167/86 94/165/85 111/166/85
f 95/167/86 111/166/85 115/168/86
f 120/171/88 125/172/88 121/173/88
f 120/171/88 121/173/88 123/173/88
f 127/174/88 128/175/88 130/175/88
f 127/174/88 130/175/88 132/176/88
f 129/174/88 132/176/88 133/177/88
f 129/174/88 133/177/88 131/178/88
f 122/171/88 124/179/88 126/180/88
f 122/171/88 126/180/88 125/172/88
f 120 121
f 123 125
